<?xml version="1.0" encoding="UTF-8"?>
<svg id="Layer_2" data-name="Layer 2" xmlns="http://www.w3.org/2000/svg" viewBox="0 0 312.8052 76.4835">
  <g id="katman_1" data-name="katman 1">
    <path d="m0,76.4728c8.0615-10.6307,17.4013-18.3574,26.9484-25.7469,15.0689-11.6635,31.6619-20.7684,49.7491-26.8046,4.7599-1.5885,7.2609-5.171,10.7654-7.9449,3.8253-3.0279,7.1966,4.3147,11.8688,1.288,2.3962-1.5523,5.0661-1.8671,6.4662-5.2556,2.1203-5.1317,4.103-5.1034,8.2105-1.1021,4.4426,4.3277,12.2799,2.2271,13.9534-3.9375.7005-2.5805,1.5088-4.7834,4.3791-5.0427,2.7993-.2529,4.8708,1.5006,5.3482,4.0378.9958,5.2921,4.743,4.8199,8.5989,4.9511,4.6707.1589,5.9889-2.4112,6.4654-6.4455.3115-2.6371,2.145-4.4201,4.9686-4.4689,2.7814-.0481,4.2144,1.6414,5.2526,4.1839,2.8058,6.8711,3.6446,7.1889,10.4963,6.7117,2.7782-.1935,4.7076-.8353,4.9325-4.0153.1912-2.7039,1.4943-4.8376,4.3695-4.9701,3.1629-.1458,4.5943,2.1324,5.7204,4.837,3.0076,7.2236,8.3664,8.5128,14.3945,3.4435,2.5811-2.1705,4.6113-2.4422,6.7029.5365,4.6026,6.5549,7.637,7.9718,14.4843,5.7988,3.3332-1.0578,5.6184-1.2586,7.407,2.1872,1.7915,3.4516,5.4071,4.2204,8.7033,5.414,18.9604,6.8655,36.5342,16.2938,52.0777,29.1758,6.6456,5.5077,12.6549,11.7841,18.9387,17.7267.9721.9192,1.7572,1.9662,1.5779,3.8059-3.2701.4845-4.9625-1.9417-7.0134-3.4212-20.2987-14.6435-42.1536-26.2847-65.8586-34.4166-3.657-1.2545-6.8346-2.7197-9.7335,1.7582-1.8878,2.9162-4.694,2.1891-6.4337-.8338-.8023-1.3941-1.1127-3.0816-1.9662-4.434-3.1374-4.9717-9.3244-5.1504-11.8073-.2453-1.076,2.1256-2.1133,3.872-4.6744,3.604-2.5333-.2651-3.8797-2.1746-3.925-4.4666-.0864-4.3679-2.5056-6.1445-6.3719-7.037-3.3835-.781-5.9572-.7382-6.3086,3.6142-.0855,1.0592-.4053,2.1317-.7961,3.1279-.9846,2.51-2.719,4.0086-5.5919,3.6423-2.587-.3298-3.3273-2.1568-3.9556-4.4341-2.1318-7.7276-2.9335-8.2961-8.5289-8.3212-3.1019-.0139-5.2657.8049-5.7613,4.2243-.1928,1.3302-.7467,2.608-.9394,3.9382-.4674,3.2269-1.5523,6.076-5.4243,5.6471-3.4854-.3861-4.617-3.176-5.1846-6.3537-1.355-7.5853-1.4422-7.4275-7.3343-7.4191-4.2133.006-6.776,1.3488-6.825,5.9424-.0113,1.0634-.2209,2.1696-.5708,3.1756-.9109,2.6184-2.8211,3.9125-5.6065,3.6205-2.5174-.2639-3.7467-1.8545-4.0666-4.2947-.3705-2.8267.2221-6.7944-4.2413-6.3187-3.8092.406-8.4473.4726-9.4613,5.8407-.1004.5315-.1159,1.1035-.3314,1.5849-2.0046,4.4791-4.6279,4.8555-7.7741,1.142-5.1144-6.0364-10.095-5.2122-13.33,2.2059-2.4602,5.6414-4.8854,6.3763-8.2282,1.426-2.4728-3.6617-4.6575-1.8106-6.8529-1.0666-17.4652,5.9184-34.1624,13.5133-49.9128,23.1656-7.1545,4.3845-14.1249,9.0139-20.7944,14.1046-1.6742,1.2779-3.0937,3.1009-7.1754,2.9342Z"/>
  </g>
</svg>